<svg xmlns="http://www.w3.org/2000/svg" viewBox="0 0 376 110" role="img" aria-label="Infinity">
  <!-- Logo Infinity COLORIDO para fundo ESCURO (social, deck, avatar, capa).
       NÃO usar como BRAND.logoUrl: o app aplica `invert` no tema claro e o roxo
       vira verde-amarelado. Para o app use logo.svg (mono branco). -->
  <defs>
    <linearGradient id="infD" x1="6%" y1="92%" x2="94%" y2="6%">
      <stop offset="0%"   stop-color="#7A2FB0" />
      <stop offset="48%"  stop-color="#A855F7" />
      <stop offset="100%" stop-color="#D8B4FE" />
    </linearGradient>
  </defs>

  <g transform="translate(6.68, 10.61) scale(0.88)" fill="none" stroke="url(#infD)" stroke-width="13" stroke-linecap="round">
    <path d="M60 60 C60 47, 47 34, 34 34 C21 34, 8 47, 8 60 C8 73, 21 86, 34 86
             C47 86, 60 73, 60 60 C60 47, 73 34, 86 34 C99 34, 112 47, 112 60
             C112 73, 99 86, 86 86 C73 86, 60 73, 60 60 Z" />
    <path d="M84 34 C96 32, 100 29, 106 24" />
    <path d="M121.6 8.4 L116.6 34.6 L95.4 13.4 Z" fill="#D8B4FE" stroke="none" />
  </g>

  <g transform="translate(132, 35)" fill="#ffffff">
    <path transform="translate(0,0)"   d="M0 0 H11 V40 H0 Z" />
    <path transform="translate(18,0)"  d="M0 0 H11 L23 24.5 V0 H34 V40 H23 L11 15.5 V40 H0 Z" />
    <path transform="translate(59,0)"  d="M0 0 H28 V11 H11 V16.5 H24 V27.5 H11 V40 H0 Z" />
    <path transform="translate(94,0)"  d="M0 0 H11 V40 H0 Z" />
    <path transform="translate(112,0)" d="M0 0 H11 L23 24.5 V0 H34 V40 H23 L11 15.5 V40 H0 Z" />
    <path transform="translate(153,0)" d="M0 0 H11 V40 H0 Z" />
    <path transform="translate(171,0)" d="M0 0 H32 V11 H21.5 V40 H10.5 V11 H0 Z" />
    <path transform="translate(204,0)" d="M0 0 H11.5 L16 10.5 L20.5 0 H32 L21.5 24 V40 H10.5 V24 Z" />
  </g>
</svg>
